<svg width="22" height="17" viewBox="0 0 22 17" fill="none" xmlns="http://www.w3.org/2000/svg">
<path fill-rule="evenodd" clip-rule="evenodd" d="M21.5579 3.90545C21.9591 3.52586 21.9766 2.89294 21.597 2.49178L19.5351 0.312691C19.1555 -0.0884683 18.5225 -0.105952 18.1214 0.27364L8.02932 9.82313L3.90545 5.46496C3.52586 5.0638 2.89294 5.04632 2.49178 5.42591L0.31269 7.48785C-0.0884684 7.86744 -0.105952 8.50037 0.27364 8.90152L5.0826 13.9837C5.08334 13.9845 5.08408 13.9853 5.08482 13.9861L7.14675 16.1651C7.1942 16.2153 7.24561 16.2594 7.30003 16.2976C7.68096 16.5645 8.20941 16.5363 8.56043 16.2042L10.7395 14.1423C10.7402 14.1416 10.7408 14.141 10.7415 14.1404L21.5579 3.90545Z" fill="white"/>
</svg>
