{
  "asset": {
    "version": "2.0",
    "generator": "GLTFExporter"
  },
  "scenes": [
    {
      "name": "Scene",
      "nodes": [
        5
      ]
    }
  ],
  "scene": 0,
  "nodes": [
    {
      "matrix": [
        -0.09600086510181427,
        0,
        3.128105339500599e-8,
        0,
        0,
        0.09600086510181427,
        0,
        0,
        -3.128105339500599e-8,
        0,
        -0.09600086510181427,
        0,
        0,
        0,
        0,
        1
      ],
      "name": "legs",
      "extras": {
        "name": "legs"
      },
      "mesh": 0
    },
    {
      "matrix": [
        -0.09600086510181427,
        0,
        3.128105339500599e-8,
        0,
        0,
        0.09600086510181427,
        0,
        0,
        -3.128105339500599e-8,
        0,
        -0.09600086510181427,
        0,
        0,
        0,
        0,
        1
      ],
      "name": "cushions",
      "extras": {
        "name": "cushions"
      },
      "mesh": 1
    },
    {
      "matrix": [
        -0.09600086510181427,
        0,
        3.128105339500599e-8,
        0,
        0,
        0.09600086510181427,
        0,
        0,
        -3.128105339500599e-8,
        0,
        -0.09600086510181427,
        0,
        0,
        0,
        0,
        1
      ],
      "name": "back",
      "extras": {
        "name": "back"
      },
      "mesh": 2
    },
    {
      "matrix": [
        -0.09600086510181427,
        0,
        3.128105339500599e-8,
        0,
        0,
        0.09600086510181427,
        0,
        0,
        -3.128105339500599e-8,
        0,
        -0.09600086510181427,
        0,
        0,
        0,
        0,
        1
      ],
      "name": "supports",
      "extras": {
        "name": "supports"
      },
      "mesh": 3
    },
    {
      "matrix": [
        -0.09600086510181427,
        0,
        3.128105339500599e-8,
        0,
        0,
        0.09600086510181427,
        0,
        0,
        -3.128105339500599e-8,
        0,
        -0.09600086510181427,
        0,
        0,
        0,
        0,
        1
      ],
      "name": "base",
      "extras": {
        "name": "base"
      },
      "mesh": 4
    },
    {
      "name": "chair.glb",
      "children": [
        0,
        1,
        2,
        3,
        4
      ]
    }
  ],
  "bufferViews": [
    {
      "buffer": 0,
      "byteOffset": 0,
      "byteLength": 203412,
      "target": 34962,
      "byteStride": 12
    },
    {
      "buffer": 0,
      "byteOffset": 203412,
      "byteLength": 203412,
      "target": 34962,
      "byteStride": 12
    },
    {
      "buffer": 0,
      "byteOffset": 406824,
      "byteLength": 135608,
      "target": 34962,
      "byteStride": 8
    },
    {
      "buffer": 0,
      "byteOffset": 542432,
      "byteLength": 176448,
      "target": 34963
    },
    {
      "buffer": 0,
      "byteOffset": 718880,
      "byteLength": 213984,
      "target": 34962,
      "byteStride": 12
    },
    {
      "buffer": 0,
      "byteOffset": 932864,
      "byteLength": 213984,
      "target": 34962,
      "byteStride": 12
    },
    {
      "buffer": 0,
      "byteOffset": 1146848,
      "byteLength": 142656,
      "target": 34962,
      "byteStride": 8
    },
    {
      "buffer": 0,
      "byteOffset": 1289504,
      "byteLength": 173880,
      "target": 34963
    },
    {
      "buffer": 0,
      "byteOffset": 1463384,
      "byteLength": 10944,
      "target": 34962,
      "byteStride": 12
    },
    {
      "buffer": 0,
      "byteOffset": 1474328,
      "byteLength": 10944,
      "target": 34962,
      "byteStride": 12
    },
    {
      "buffer": 0,
      "byteOffset": 1485272,
      "byteLength": 7296,
      "target": 34962,
      "byteStride": 8
    },
    {
      "buffer": 0,
      "byteOffset": 1492568,
      "byteLength": 2688,
      "target": 34963
    },
    {
      "buffer": 0,
      "byteOffset": 1495256,
      "byteLength": 31056,
      "target": 34962,
      "byteStride": 12
    },
    {
      "buffer": 0,
      "byteOffset": 1526312,
      "byteLength": 31056,
      "target": 34962,
      "byteStride": 12
    },
    {
      "buffer": 0,
      "byteOffset": 1557368,
      "byteLength": 20704,
      "target": 34962,
      "byteStride": 8
    },
    {
      "buffer": 0,
      "byteOffset": 1578072,
      "byteLength": 26304,
      "target": 34963
    },
    {
      "buffer": 0,
      "byteOffset": 1604376,
      "byteLength": 2808,
      "target": 34962,
      "byteStride": 12
    },
    {
      "buffer": 0,
      "byteOffset": 1607184,
      "byteLength": 2808,
      "target": 34962,
      "byteStride": 12
    },
    {
      "buffer": 0,
      "byteOffset": 1609992,
      "byteLength": 1872,
      "target": 34962,
      "byteStride": 8
    },
    {
      "buffer": 0,
      "byteOffset": 1611864,
      "byteLength": 1992,
      "target": 34963
    }
  ],
  "buffers": [
    {
      "byteLength": 1613856,
      "uri": "data:application/octet-stream;base64,"
    }
  ],
  "accessors": [
    {
      "bufferView": 0,
      "componentType": 5126,
      "count": 16951,
      "max": [
        4.691948413848877,
        9.50275993347168,
        6.1210479736328125
      ],
      "min": [
        -4.675808429718018,
        0.0003026436606887728,
        -5.430161476135254
      ],
      "type": "VEC3"
    },
    {
      "bufferView": 1,
      "componentType": 5126,
      "count": 16951,
      "max": [
        1,
        0.9987016916275024,
        0.9997319579124451
      ],
      "min": [
        -1,
        -0.9994372129440308,
        -0.9999982118606567
      ],
      "type": "VEC3"
    },
    {
      "bufferView": 2,
      "componentType": 5126,
      "count": 16951,
      "max": [
        0.9882373213768005,
        1
      ],
      "min": [
        0,
        0.01761680841445923
      ],
      "type": "VEC2"
    },
    {
      "bufferView": 3,
      "componentType": 5123,
      "count": 88224,
      "max": [
        16950
      ],
      "min": [
        0
      ],
      "type": "SCALAR"
    },
    {
      "bufferView": 4,
      "componentType": 5126,
      "count": 17832,
      "max": [
        3.7407777309417725,
        9.89449405670166,
        5.223287582397461
      ],
      "min": [
        -3.6396048069000244,
        3.1373417377471924,
        -4.395101547241211
      ],
      "type": "VEC3"
    },
    {
      "bufferView": 5,
      "componentType": 5126,
      "count": 17832,
      "max": [
        1,
        0.9999987483024597,
        0.9999797940254211
      ],
      "min": [
        -1,
        -0.9999985694885254,
        -0.999999463558197
      ],
      "type": "VEC3"
    },
    {
      "bufferView": 6,
      "componentType": 5126,
      "count": 17832,
      "max": [
        1,
        1
      ],
      "min": [
        0,
        0
      ],
      "type": "VEC2"
    },
    {
      "bufferView": 7,
      "componentType": 5123,
      "count": 86940,
      "max": [
        17831
      ],
      "min": [
        0
      ],
      "type": "SCALAR"
    },
    {
      "bufferView": 8,
      "componentType": 5126,
      "count": 912,
      "max": [
        2.8836965560913086,
        8.649024963378906,
        -2.161191701889038
      ],
      "min": [
        -2.940709114074707,
        3.1529624462127686,
        -4.484509468078613
      ],
      "type": "VEC3"
    },
    {
      "bufferView": 9,
      "componentType": 5126,
      "count": 912,
      "max": [
        1,
        0.9286920428276062,
        0.9302126169204712
      ],
      "min": [
        -1,
        -0.9999693036079407,
        -0.9575667977333069
      ],
      "type": "VEC3"
    },
    {
      "bufferView": 10,
      "componentType": 5126,
      "count": 912,
      "max": [
        0.9574585556983948,
        1
      ],
      "min": [
        0.25746676325798035,
        0.03332322835922241
      ],
      "type": "VEC2"
    },
    {
      "bufferView": 11,
      "componentType": 5123,
      "count": 1344,
      "max": [
        911
      ],
      "min": [
        0
      ],
      "type": "SCALAR"
    },
    {
      "bufferView": 12,
      "componentType": 5126,
      "count": 2588,
      "max": [
        3.7118618488311768,
        9.32486629486084,
        4.733932018280029
      ],
      "min": [
        -3.695693016052246,
        2.38252592086792,
        -4.827481746673584
      ],
      "type": "VEC3"
    },
    {
      "bufferView": 13,
      "componentType": 5126,
      "count": 2588,
      "max": [
        1,
        0.9982356429100037,
        0.9999486804008484
      ],
      "min": [
        -1,
        -0.9982638359069824,
        -0.999630868434906
      ],
      "type": "VEC3"
    },
    {
      "bufferView": 14,
      "componentType": 5126,
      "count": 2588,
      "max": [
        0.9997206330299377,
        0.8310431241989136
      ],
      "min": [
        0.23498371243476868,
        0.014989912509918213
      ],
      "type": "VEC2"
    },
    {
      "bufferView": 15,
      "componentType": 5123,
      "count": 13152,
      "max": [
        2587
      ],
      "min": [
        0
      ],
      "type": "SCALAR"
    },
    {
      "bufferView": 16,
      "componentType": 5126,
      "count": 234,
      "max": [
        3.654675006866455,
        3.7842602729797363,
        5.1523756980896
      ],
      "min": [
        -3.6451148986816406,
        2.898575782775879,
        -2.167901039123535
      ],
      "type": "VEC3"
    },
    {
      "bufferView": 17,
      "componentType": 5126,
      "count": 234,
      "max": [
        0.9967225790023804,
        0.9979492425918579,
        0.9980029463768005
      ],
      "min": [
        -0.9967141151428223,
        -0.9974006414413452,
        -0.9980020523071289
      ],
      "type": "VEC3"
    },
    {
      "bufferView": 18,
      "componentType": 5126,
      "count": 234,
      "max": [
        0.9957716464996338,
        0.8284969329833984
      ],
      "min": [
        0.5149363875389099,
        0.00985109806060791
      ],
      "type": "VEC2"
    },
    {
      "bufferView": 19,
      "componentType": 5123,
      "count": 996,
      "max": [
        233
      ],
      "min": [
        0
      ],
      "type": "SCALAR"
    }
  ],
  "materials": [
    {
      "pbrMetallicRoughness": {
        "baseColorFactor": [
          0.800000011920929,
          0.800000011920929,
          0.800000011920929,
          1
        ],
        "metallicFactor": 0,
        "roughnessFactor": 0.5
      },
      "doubleSided": true,
      "name": "wire_002049060"
    },
    {
      "pbrMetallicRoughness": {
        "baseColorFactor": [
          0.800000011920929,
          0.800000011920929,
          0.800000011920929,
          1
        ],
        "metallicFactor": 0,
        "roughnessFactor": 0.5
      },
      "doubleSided": true,
      "name": "wire_196010216"
    },
    {
      "pbrMetallicRoughness": {
        "metallicFactor": 1,
        "roughnessFactor": 1
      }
    }
  ],
  "meshes": [
    {
      "primitives": [
        {
          "mode": 4,
          "attributes": {
            "POSITION": 0,
            "NORMAL": 1,
            "TEXCOORD_0": 2
          },
          "indices": 3,
          "material": 0
        }
      ]
    },
    {
      "primitives": [
        {
          "mode": 4,
          "attributes": {
            "POSITION": 4,
            "NORMAL": 5,
            "TEXCOORD_0": 6
          },
          "indices": 7,
          "material": 1
        }
      ]
    },
    {
      "primitives": [
        {
          "mode": 4,
          "attributes": {
            "POSITION": 8,
            "NORMAL": 9,
            "TEXCOORD_0": 10
          },
          "indices": 11,
          "material": 0
        }
      ]
    },
    {
      "primitives": [
        {
          "mode": 4,
          "attributes": {
            "POSITION": 12,
            "NORMAL": 13,
            "TEXCOORD_0": 14
          },
          "indices": 15,
          "material": 2
        }
      ]
    },
    {
      "primitives": [
        {
          "mode": 4,
          "attributes": {
            "POSITION": 16,
            "NORMAL": 17,
            "TEXCOORD_0": 18
          },
          "indices": 19,
          "material": 0
        }
      ]
    }
  ]
}